<!-- icon666.com - MILLIONS vector ICONS FREE --><svg id="svg4364" viewBox="0 0 8.4666659 8.4666659" xmlns="http://www.w3.org/2000/svg" xmlns:svg="http://www.w3.org/2000/svg"><path id="path2777" d="m4.0019531 2.9960938a1.0002461 1.0002461 0 0 0 0 2.0019531h3.1503907l2.15625 12.8066411-2.1699219 3.691406a1.0001002 1.0001002 0 0 0 .8632812 1.505859h4.0019529 13.994141 2.001953a1.0002462 1.0002462 0 1 0 0-2h-18.2558594l1.1835934-2h14.074219c.440472-.002931.828026-.294453.953125-.716797l3.003906-9.9960935c.196349-.643829-.285883-1.293063-.958984-1.2910156h-18.484375l-.53125-3.1660157a1.0001002 1.0001002 0 0 0 -.9824219-.8359374zm21.9960939 20.0058592c-1.64501 0-2.996094 1.351084-2.996094 2.996094s1.351084 3.005859 2.996094 3.005859 3.005859-1.360849 3.005859-3.005859-1.360849-2.996094-3.005859-2.996094zm-13.994141 0c-1.645009 0-3.0058591 1.351084-3.0058591 2.996094s1.3608501 3.005859 3.0058591 3.005859c1.64501 0 2.996094-1.360849 2.996094-3.005859s-1.351084-2.996094-2.996094-2.996094zm-2.1503904-14.0039061h16.8027344l-2.398438 8.0019531h-13.060546zm2.1503904 16.0039061c.56413 0 .996094.431965.996094.996094 0 .56413-.431964 1.005859-.996094 1.005859-.564129 0-1.005859-.441729-1.005859-1.005859 0-.564129.44173-.996094 1.005859-.996094zm13.994141 0c.56413 0 1.00586.431965 1.005859.996094 0 .56413-.441729 1.00586-1.005859 1.005859-.564129 0-.996094-.441729-.996094-1.005859 0-.564129.431965-.996094.996094-.996094z" transform="scale(.265)" font-variant-ligatures="normal" font-variant-position="normal" font-variant-caps="normal" font-variant-numeric="normal" font-variant-alternates="normal" font-feature-settings="normal" text-indent="0" text-align="start" text-decoration-line="none" text-decoration-style="solid" text-decoration-color="rgb(0,0,0)" text-transform="none" text-orientation="mixed" white-space="normal" shape-padding="0" isolation="auto" mix-blend-mode="normal" solid-color="rgb(0,0,0)" solid-opacity="1" vector-effect="none" paint-order="markers fill stroke"></path></svg>